:SAMPLES-PER-SECOND 30
:FULLY-SPECIFIED
:DEGREES
331
root  40.1917 36.0759 5.9018 -31.924 87.5527 -62.01
RightUpLeg  -68.2636 -17.4178 13.9844
RightLeg  32.741 4.98597 3.20651
RightFoot  5.97495 0.696236 -4.29996
RightToes  0.000482159 0.542163 -0.142577
Spine  67.4332 -5.78909 10.4413
Spine1  7.07024 3.56023 -7.83096
HEad  -38.0295 -10.5982 2.02978
LeftShoulder1  7.92281 -28.5959 -17.8442
LeftArm  -70.9262 -63.5278 25.1874
LeftForeArm  2.96882 -2.64534 0.148988
LeftHand  -0.25398 0.0180481 5.50724
RightShoulder  2.41208 17.8153 3.27367
RightArm  -61.8388 50.5225 -22.5257
RightForeArm  -11.777 -2.9472 1.1391
RightHand  -0.0160983 1.83308 -0.458615
LeftUpLeg  -71.8196 22.2177 -23.0251
LeftLeg  37.3344 -2.69588 -1.83336
LeftFoot  -0.315766 -1.20097 12.4082
LeftToes  1.06245e-005 4.65856e-005 -8.18503e-006
332
root  40.7132 35.7827 6.35421 -44.5019 87.7399 -76.8953
RightUpLeg  -72.2779 -18.2317 17.1676
RightLeg  36.2799 5.82679 4.3126
RightFoot  4.39366 0.868208 -6.05949
RightToes  0.000482159 0.542163 -0.142577
Spine  69.9847 -5.32377 9.96565
Spine1  4.675 3.57189 -7.65653
HEad  -39.5716 -10.5091 2.49183
LeftShoulder1  7.59064 -29.9177 -15.6859
LeftArm  -76.4332 -62.4767 30.3725
LeftForeArm  1.67514 -3.68264 1.00492
LeftHand  -0.25398 0.0180481 5.50724
RightShoulder  2.26143 18.3055 2.20535
RightArm  -63.5993 49.4054 -24.4064
RightForeArm  -14.7057 -3.81939 0.62844
RightHand  0.0403178 3.83256 0.177743
LeftUpLeg  -75.3277 22.0098 -23.2959
LeftLeg  40.3777 -3.09254 -2.43228
LeftFoot  -1.46532 -0.976814 11.3651
LeftToes  1.06245e-005 4.65856e-005 -8.18503e-006
333
root  41.1968 35.4584 6.72233 -55.82 87.7347 -90.4601
RightUpLeg  -75.9799 -18.5172 19.7556
RightLeg  39.7206 5.79187 4.85186
RightFoot  2.47042 0.909729 -7.34726
RightToes  0.000482159 0.542163 -0.142577
Spine  71.7998 -4.94845 9.62463
Spine1  2.70344 3.62588 -7.71791
HEad  -40.623 -10.5625 2.53497
LeftShoulder1  6.84782 -30.6544 -12.7673
LeftArm  -80.123 -61.4988 32.9193
LeftForeArm  -0.466926 -4.90901 1.82545
LeftHand  -0.25398 0.0180481 5.50724
RightShoulder  1.96539 18.4033 0.618079
RightArm  -63.8623 48.3845 -24.903
RightForeArm  -18.8487 -4.3757 0.500047
RightHand  0.114304 5.91646 0.755007
LeftUpLeg  -78.6873 21.9103 -23.8898
LeftLeg  43.0638 -3.50417 -3.10473
LeftFoot  -2.86988 -0.776477 10.6915
LeftToes  1.06245e-005 4.65856e-005 -8.18503e-006
334
root  41.6356 35.1479 7.00798 -60.3538 87.3945 -97.3226
RightUpLeg  -79.3648 -18.0524 21.9974
RightLeg  42.3722 5.21689 4.78246
RightFoot  0.787002 0.861265 -8.03263
RightToes  0.000482159 0.542163 -0.142577
Spine  72.993 -4.50418 9.24538
Spine1  1.29417 3.80346 -7.83483
HEad  -41.3602 -10.5293 2.11527
LeftShoulder1  6.03682 -30.706 -10.1402
LeftArm  -82.8822 -60.691 34.5831
LeftForeArm  -4.24404 -6.08394 2.37902
LeftHand  -0.25398 0.0180481 5.50724
RightShoulder  1.49826 17.7242 -1.56075
RightArm  -65.2565 48.0627 -23.9159
RightForeArm  -23.007 -3.82438 0.01629
RightHand  0.217969 7.40582 1.51057
LeftUpLeg  -82.2113 21.8432 -24.5939
LeftLeg  45.4613 -3.65924 -3.56134
LeftFoot  -4.00001 -0.650008 10.4798
LeftToes  1.06245e-005 4.65856e-005 -8.18503e-006
335
root  42.0261 34.9072 7.24767 -64.8568 87.1539 -103.742
RightUpLeg  -82.1492 -17.6001 23.9466
RightLeg  44.4103 4.66368 4.56615
RightFoot  -0.167093 0.884497 -9.02664
RightToes  0.000482159 0.542163 -0.142577
Spine  74.0089 -4.13262 8.71533
Spine1  0.573526 3.6655 -7.63641
HEad  -42.2155 -10.0029 1.79471
LeftShoulder1  5.447 -30.3649 -8.42456
LeftArm  -85.6315 -59.7962 36.1228
LeftForeArm  -8.04958 -7.6043 2.92535
LeftHand  -0.25398 0.0180481 5.50724
RightShoulder  1.10761 16.0691 -3.13659
RightArm  -70.2382 48.726 -22.0423
RightForeArm  -24.8554 -0.802167 -1.18536
RightHand  0.336128 8.31771 2.35038
LeftUpLeg  -85.0763 21.5073 -24.9074
LeftLeg  47.5333 -3.48721 -3.64731
LeftFoot  -4.33751 -0.600699 10.2176
LeftToes  1.06245e-005 4.65856e-005 -8.18503e-006
336
root  42.3597 34.7558 7.44607 -75.5503 87.2515 -115.584
RightUpLeg  -84.0321 -17.696 25.201
RightLeg  46.1384 4.10776 4.2383
RightFoot  -0.977963 0.935421 -10.3512
RightToes  0.000482159 0.542163 -0.142577
Spine  74.9061 -4.19212 8.05247
Spine1  0.864428 2.97877 -7.38164
HEad  -43.5564 -8.80854 1.83462
LeftShoulder1  5.004 -29.296 -7.53047
LeftArm  -90.4557 -58.861 37.5363
LeftForeArm  -8.80352 -10.7492 3.32266
LeftHand  -0.25398 0.0180481 5.50724
RightShoulder  0.967286 13.9781 -3.2656
RightArm  -77.0691 49.6864 -20.3876
RightForeArm  -24.2566 5.235 -1.87559
RightHand  0.474325 8.47964 3.47128
LeftUpLeg  -86.5429 20.9093 -24.8418
LeftLeg  48.9829 -3.26387 -3.57884
LeftFoot  -4.25019 -0.575731 9.68032
LeftToes  1.06245e-005 4.65856e-005 -8.18503e-006
